<svg width="1105" height="836" xmlns="http://www.w3.org/2000/svg">
 <title>book lover</title>

 <g stroke="null">
  <title>background</title>
  <rect fill="none" id="canvas_background" height="838" width="1107" y="-1" x="-1" stroke="null"/>
 </g>
 <g stroke="null">
  <title>Layer 1</title>
  <path id="svg_3" fill="#171718" d="m277.421415,662.420032s21,-3.36 33.6,11.48c0,0 -9.24,7.28 -29.12,-2.8l-4.48,-8.68z" stroke="null"/>
  <path id="svg_4" fill="#171718" d="m275.221415,662.090032s-13.4,16.49 -6.8,34.85c0,0 10.92,-4.37 12.11,-26.63l-5.31,-8.22z" stroke="null"/>
  <path id="svg_5" fill="#171718" d="m263.181415,634.980032s8.4,-15.41 42,6.16c0,0 -4.48,10.36 -19.32,9.52s-18.76,-7.56 -22.68,-15.68z" stroke="null"/>
  <path id="svg_6" fill="#171718" d="m261.011415,633.870032s-17.43,-2 -19.12,37.9c0,0 11.05,2.29 18.9,-10.33s4.63,-19.7 0.22,-27.57z" stroke="null"/>
  <path id="svg_7" fill="#171718" d="m250.861415,602.040032s9.8,-27.16 45.36,-7.84c0,0 -8.12,24.92 -41.72,17.08l-3.64,-9.24z" stroke="null"/>
  <path id="svg_8" fill="#171718" d="m239.941415,561.440032s18.48,-27.44 51.24,-2c0,0 -11.48,25.76 -48.44,11.76l-2.8,-9.76z" stroke="null"/>
  <path id="svg_9" fill="#171718" d="m236.021415,522.800032s21.56,-25.21 54,0c0,0 -20.44,22.12 -54,6.44l0,-6.44z" stroke="null"/>
  <path id="svg_10" fill="#171718" d="m232.661415,485.270032s21.84,-26.32 52.92,-1.4c0,0 -24.64,23.24 -52.92,7.56l0,-6.16z" stroke="null"/>
  <path id="svg_11" fill="#171718" d="m234.621415,451.950032s23,-33.88 52.08,-10.92c0,0 -24.64,29.12 -52.08,17.36l0,-6.44z" stroke="null"/>
  <path id="svg_12" fill="#171718" d="m239.941415,413.030032s24.36,-33.6 52.64,-7.84c0,0 -28.84,29.12 -52.64,14l0,-6.16z" stroke="null"/>
  <path id="svg_13" fill="#171718" d="m248.061415,378.240032s28.84,-31.58 54,-19c0,0 -30.05,33.54 -55.26,27.38l1.26,-8.38z" stroke="null"/>
  <path id="svg_14" fill="#171718" d="m258.141415,345.260032s33.28,-38.68 52.64,-25.76c0,0 -24.52,30 -55,33l2.36,-7.24z" stroke="null"/>
  <path id="svg_15" fill="#171718" d="m272.691415,307.010032s29.13,-31.58 50.41,-23.74c0,0 -24.92,32.76 -54.32,33.6l3.91,-9.86z" stroke="null"/>
  <path id="svg_16" fill="#171718" d="m285.861415,271.230032s32.2,-30.24 46.2,-24.92c0,0 -23.24,33.6 -47.6,31.64l1.4,-6.72z" stroke="null"/>
  <path id="svg_17" fill="#171718" d="m298.741415,238.190032s27.72,-36.13 42.85,-33.33c0,0 -16.81,32.21 -42.85,37l0,-3.67z" stroke="null"/>
  <path id="svg_18" fill="#171718" d="m312.721415,193.640032s24.5,-27.69 37.74,-27.63c0,0 -19.34,37 -38.75,36.66l1.01,-9.03z" stroke="null"/>
  <path id="svg_19" fill="#171718" d="m331.001498,145.979886l23.67,-57.68s1.18,52.14 -26.68,68.38l3.01,-10.7z" stroke="null"/>
  <path id="svg_20" fill="#171718" d="m340.611494,88.369935s3.92,-48.17 1.4,-52.09c0,0 16.92,40.05 -1.56,73.37l0.16,-21.28z" stroke="null"/>
  <path id="svg_21" fill="#171718" d="m249.941415,601.400032s-24.54,-15.21 -40.43,22c0,0 21.84,14.5 43.32,-12.51l-2.89,-9.49z" stroke="null"/>
  <path id="svg_22" fill="#171718" d="m239.151415,559.890032s-30.1,-13.73 -44.7,25.12c0,0 23.25,16 47.44,-15.3l-2.74,-9.82z" stroke="null"/>
  <path id="svg_23" fill="#171718" d="m234.621415,525.110032s-21.56,-25.21 -54,0c0,0 20.44,22.12 54,6.44l0,-6.44z" stroke="null"/>
  <path id="svg_24" fill="#171718" d="m231.921415,485.270032s-21.84,-26.32 -52.92,-1.4c0,0 24.64,23.24 52.92,7.56l0,-6.16z" stroke="null"/>
  <path id="svg_25" fill="#171718" d="m234.621415,452.910032s-15.32,-37.95 -48.62,-21.63c0,0 18,33.65 47.26,27.93l1.36,-6.3z" stroke="null"/>
  <path id="svg_26" fill="#171718" d="m241.871415,412.840032s-15.23,-38.61 -49,-20.71c0,0 20.68,35.39 47.5,26.67l1.5,-5.96z" stroke="null"/>
  <path id="svg_27" fill="#171718" d="m251.311415,378.430032s-6,-42.33 -34,-46.12c0,0 5.94,44.64 30.23,53.75l3.77,-7.63z" stroke="null"/>
  <path id="svg_28" fill="#171718" d="m258.851415,345.340032s-2.34,-51 -25.49,-52.78c0,0 0.78,38.71 22.88,60l2.61,-7.22z" stroke="null"/>
  <path id="svg_29" fill="#171718" d="m275.091415,305.580032s-6.9,-42.41 -29,-47.59c0,0 2.74,41.07 26.81,58l2.19,-10.41z" stroke="null"/>
  <path id="svg_30" fill="#171718" d="m288.481415,271.580032s-0.23,-44.18 -13.73,-50.67c0,0 -8.37,40 9.82,56.31l3.91,-5.64z" stroke="null"/>
  <path id="svg_31" fill="#171718" d="m299.771415,237.690032s-1.89,-45.49 -15.87,-51.9c0,0 -4.78,36 13.78,54.88l2.09,-2.98z" stroke="null"/>
  <path id="svg_32" fill="#171718" d="m314.671415,197.270032s-0.08,-37 -10.06,-45.68c0,0 -9.92,40.53 4.85,53.12l5.21,-7.44z" stroke="null"/>
  <path id="svg_33" fill="#171718" d="m321.831423,154.159968l-9.71,-61.58s-13.19,50.46 10.17,72.7l-0.46,-11.12z" stroke="null"/>
  <path id="svg_34" fill="#171718" d="m327.721463,94.949977s-24.92,-41.4 -24.41,-46c0,0 2.65,43.39 34,65l-9.59,-19z" stroke="null"/>
  <path id="svg_35" fill="#171718" d="m334.641495,94.720081s-23.52,-58.8 -34.16,-63.56c0,0 33.6,17.08 36.12,61.88l-1.96,1.68z" stroke="null"/>
  <path id="svg_36" fill="#444053" d="m317.591463,195.019968l-1.61,-0.49c19.85,-64.73 24.8,-106 13.95,-116.35l1.15,-1.22c11.51,10.92 6.84,51.74 -13.49,118.06z" stroke="null"/>
  <path id="svg_37" fill="#444053" d="m256.931415,354.580032l-2.38,-0.85c2.11,-5.93 4.38,-11.95 6.76,-17.88c20.72,-51.64 38.36,-99.68 49.67,-136.56l2.07,-1c-11.33,36.95 -28.66,86.83 -49.4,138.54c-2.37,5.82 -4.63,11.81 -6.72,17.75z" stroke="null"/>
  <path id="svg_38" fill="#444053" d="m307.011415,710.860032c-0.32,-0.35 -32.49,-36.58 -54.92,-98.43a364.18,364.18 0 0 1 -21.67,-112.78c-1.54,-48.13 8.56,-101.87 25.86,-150.69l1.88,2.2c-38.84,109.57 -23.41,203.46 -2.94,260c22.19,61.29 54,97.12 54.31,97.48l-2.52,2.22z" stroke="null"/>
  <path id="svg_39" fill="#d5d6db" d="m781.731198,601.939776s-22.67,27.67 -4.67,69.5l-181,78.5l-17.37,3.64l-8,-35l5.35,-44.17l0,-24.14l205.69,-48.33z" stroke="null"/>
  <polygon id="svg_40" fill="#171718" points="210.16119384765625,584.059814453125 460.68119049072266,538.3898315429688 792.6312026977539,591.2698364257812 586.4512100219727,665.499755859375 210.16119384765625,584.059814453125 " stroke="null"/>
  <polygon id="svg_41" fill="#171718" points="210.16119384765625,584.059814453125 460.68119049072266,538.3898315429688 792.6312026977539,591.2698364257812 586.4512100219727,665.499755859375 210.16119384765625,584.059814453125 " stroke="null"/>
  <path id="svg_42" fill="#171718" d="m210.161198,584.049776s-23.43,44.39 3.57,85.39l371.5,80.5s-23.06,-35.36 1.19,-84.44l-376.26,-81.45z" stroke="null"/>
  <path id="svg_43" opacity="0.1" d="m210.161198,584.049776s-23.43,44.39 3.57,85.39l371.5,80.5s-23.06,-35.36 1.19,-84.44l-376.26,-81.45z" stroke="null"/>
  <path id="svg_44" opacity="0.1" d="m249.231415,631.440032s-13.39,32.48 0,53.5" stroke="null"/>
  <path id="svg_45" fill="#171718" d="m585.231198,749.939776l207.4,-88.5s11.6,2.5 4.1,11s-207.5,86 -207.5,86l-375.5,-89l371.5,80.5z" stroke="null"/>
  <path id="svg_46" opacity="0.1" d="m585.231198,749.939776l207.4,-88.5s11.6,2.5 4.1,11s-207.5,86 -207.5,86l-375.5,-89l371.5,80.5z" stroke="null"/>
  <path id="svg_47" opacity="0.1" d="m568.231198,674.439776s-20,24 0,60" stroke="null"/>
  <path id="svg_55" fill="#171718" d="m792.631198,591.269776s9.1,3.67 3.76,9.34s-209.97,64.89 -209.97,64.89l206.21,-74.23z" stroke="null"/>
  <path id="svg_63" opacity="0.1" d="m667.521198,578.259776s-20,24 0,60" stroke="null"/>
  <rect id="svg_80" opacity="0.1" height="1" width="94.57" y="752.120017" x="441.500381" stroke="null"/>
  <rect id="svg_81" opacity="0.1" height="1" width="115.23" y="789.65" x="379.639998" stroke="null"/>
  <rect id="svg_82" opacity="0.1" height="1" width="133.56" y="818.799994" x="371.129997" stroke="null"/>
  <path id="svg_88" fill="#171718" d="m449.421095,111.500016s-38,-2.29 -33.56,24.37c0,0 -0.89,4.71 3.38,6.85c0,0 0.07,-2 3.9,-1.31a17.05,17.05 0 0 0 4.14,0.2a8.62,8.62 0 0 0 5.05,-2.08l0,0s10.69,-4.42 14.85,-21.9c0,0 3.08,-3.81 3,-4.79l-6.44,2.74s2.19,4.63 0.47,8.48c0,0 -0.21,-8.31 -1.45,-8.12c-0.25,0 -3.33,1.61 -3.33,1.61s3.77,8.07 0.92,13.93c0,0 1.08,-9.94 -2.1,-13.35l-4.52,2.64s4.41,8.33 1.42,15.13c0,0 0.77,-10.43 -2.37,-14.49l-4.1,3.2s4.15,8.21 1.62,13.85c0,0 -0.33,-12.14 -2.5,-13.06c0,0 -3.59,3.16 -4.13,4.46c0,0 2.84,6 1.07,9.11c0,0 -1.07,-8.09 -2,-8.13c0,0 -3.57,5.36 -3.94,9a19.46,19.46 0 0 1 3.07,-9.54a10.71,10.71 0 0 0 -5.46,2.83s0.55,-3.79 6.35,-4.12c0,0 2.95,-4.07 3.74,-4.31c0,0 -5.77,-0.49 -9.26,1.06c0,0 3.08,-3.57 10.31,-2l4,-3.3s-7.58,-1 -10.8,0.11c0,0 3.71,-3.16 11.89,-0.86l4.41,-2.63s-6.47,-1.39 -10.32,-0.89c0,0 4.06,-2.19 11.61,0.18l3.14,-1.41s-4.73,-0.93 -6.12,-1.08s-1.46,-0.53 -1.46,-0.53a16.51,16.51 0 0 1 8.9,1s6.75,-2.43 6.62,-2.85z" stroke="null"/>
  <path id="svg_89" opacity="0.1" fill="#171718" d="m936.02071,219.08s-38,-2.29 -33.56,24.37c0,0 -0.89,4.71 3.38,6.85c0,0 0.07,-2 3.9,-1.31a17.62,17.62 0 0 0 4.14,0.2a8.59,8.59 0 0 0 5,-2.08l0,0s10.7,-4.42 14.85,-21.9c0,0 3.08,-3.81 3,-4.79l-6.42,2.74s2.19,4.63 0.47,8.48c0,0 -0.21,-8.31 -1.44,-8.12c-0.25,0 -3.34,1.61 -3.34,1.61s3.77,8.07 0.93,13.93c0,0 1.08,-9.94 -2.11,-13.35l-4.52,2.64s4.41,8.33 1.42,15.13c0,0 0.77,-10.43 -2.37,-14.49l-4.09,3.2s4.14,8.21 1.61,13.85c0,0 -0.33,-12.14 -2.5,-13.06c0,0 -3.58,3.16 -4.13,4.46c0,0 2.84,6 1.08,9.11c0,0 -1.08,-8.09 -2,-8.13c0,0 -3.57,5.36 -3.94,9a19.4,19.4 0 0 1 3.08,-9.54a10.76,10.76 0 0 0 -5.47,2.83s0.56,-3.79 6.35,-4.12c0,0 2.95,-4.07 3.74,-4.32c0,0 -5.76,-0.48 -9.26,1.07c0,0 3.08,-3.57 10.31,-2l4,-3.3s-7.59,-1 -10.8,0.11c0,0 3.7,-3.16 11.89,-0.86l4.4,-2.63s-6.47,-1.39 -10.32,-0.89c0,0 4.06,-2.19 11.61,0.18l3.15,-1.41s-4.74,-0.93 -6.13,-1.08s-1.46,-0.53 -1.46,-0.53a16.39,16.39 0 0 1 8.9,1s6.77,-2.43 6.65,-2.85z" stroke="null"/>
  <path id="svg_90" opacity="0.1" fill="#171718" d="m513.421095,276.200016s-16.56,-34.33 -37.64,-17.41c0,0 -4.55,1.52 -4.33,6.29c0,0 1.75,-0.91 3,2.77a17.72,17.72 0 0 0 1.84,3.7a8.63,8.63 0 0 0 4.29,3.4l0,0s9.07,7.18 26.36,2.28c0,0 4.83,0.83 5.62,0.25l-5.52,-4.27s-3,4.17 -7.18,4.54c0,0 7.16,-4.23 6.39,-5.21c-0.16,-0.2 -3,-2.13 -3,-2.13s-5.21,7.23 -11.71,7.6c0,0 9.2,-3.9 10.62,-8.35l-4.5,-2.66s-5.13,7.92 -12.52,8.62c0,0 9.48,-4.41 11.49,-9.13l-4.78,-2s-5.15,7.62 -11.31,8.17c0,0 10.44,-6.21 10.18,-8.56c0,0 -4.51,-1.58 -5.91,-1.43c0,0 -3.82,5.39 -7.42,5.39c0,0 6.53,-4.89 6.13,-5.68c0,0 -6.42,-0.5 -9.8,1a19.47,19.47 0 0 1 9.83,-2a10.77,10.77 0 0 0 -5.14,-3.39s3.58,-1.36 6.69,3.53c0,0 5,0.59 5.59,1.16c0,0 -2.39,-5.26 -5.44,-7.55c0,0 4.62,0.93 6.73,8l4.85,1.92s-2.79,-7.12 -5.36,-9.37c0,0 4.56,1.69 6.55,10l4.44,2.56s-1.93,-6.33 -4.25,-9.44c0,0 3.89,2.48 5.5,10.22l2.77,2.06s-1.5,-4.59 -2,-5.87s-0.25,-1.54 -0.25,-1.54a16.41,16.41 0 0 1 3.48,8.25s5.35,4.58 5.71,4.28z" stroke="null"/>
  <path id="svg_91" opacity="0.1" fill="#171718" d="m849.20071,170.58s-16.55,-34.33 -37.64,-17.41c0,0 -4.54,1.52 -4.33,6.29c0,0 1.76,-0.9 3,2.77a17.34,17.34 0 0 0 1.85,3.71a8.58,8.58 0 0 0 4.28,3.39l0,0s9.08,7.18 26.36,2.29c0,0 4.83,0.82 5.63,0.24l-5.49,-4.28s-3,4.18 -7.17,4.55c0,0 7.15,-4.24 6.38,-5.22c-0.16,-0.2 -3,-2.13 -3,-2.13s-5.2,7.23 -11.71,7.6c0,0 9.21,-3.9 10.63,-8.34l-4.57,-2.64s-5.12,7.91 -12.52,8.62c0,0 9.48,-4.42 11.5,-9.14l-4.79,-2s-5.15,7.63 -11.3,8.17c0,0 10.43,-6.21 10.17,-8.55c0,0 -4.5,-1.59 -5.9,-1.43c0,0 -3.82,5.38 -7.43,5.38c0,0 6.54,-4.89 6.14,-5.68c0,0 -6.42,-0.5 -9.81,1a19.46,19.46 0 0 1 9.83,-2a10.71,10.71 0 0 0 -5.13,-3.39s3.58,-1.36 6.69,3.53c0,0 5,0.6 5.59,1.17c0,0 -2.39,-5.27 -5.45,-7.56c0,0 4.62,0.94 6.73,8.05l4.86,1.92s-2.79,-7.13 -5.36,-9.38c0,0 4.56,1.69 6.54,10l4.45,2.56s-1.94,-6.32 -4.26,-9.44c0,0 3.9,2.48 5.5,10.22l2.77,2.06s-1.49,-4.59 -2,-5.87s-0.25,-1.53 -0.25,-1.53a16.45,16.45 0 0 1 3.47,8.25s5.43,4.54 5.74,4.22z" stroke="null"/>
  <path id="svg_92" opacity="0.1" fill="#171718" d="m902.09071,340.39s-16.55,-34.34 -37.67,-17.42c0,0 -4.54,1.52 -4.33,6.29c0,0 1.76,-0.9 3,2.77a17.33,17.33 0 0 0 1.84,3.71a8.58,8.58 0 0 0 4.28,3.39l0,0s9.08,7.19 26.37,2.29c0,0 4.82,0.83 5.62,0.24l-5.52,-4.27s-3,4.18 -7.18,4.55c0,0 7.15,-4.24 6.38,-5.22c-0.16,-0.2 -3,-2.13 -3,-2.13s-5.2,7.23 -11.71,7.61c0,0 9.21,-3.91 10.63,-8.35l-4.51,-2.66s-5.12,7.92 -12.52,8.62c0,0 9.48,-4.42 11.5,-9.14l-4.79,-2s-5.15,7.62 -11.3,8.17c0,0 10.44,-6.21 10.18,-8.56c0,0 -4.51,-1.59 -5.91,-1.43c0,0 -3.82,5.38 -7.43,5.38c0,0 6.54,-4.89 6.14,-5.68c0,0 -6.42,-0.5 -9.81,1a19.52,19.52 0 0 1 9.84,-2a10.69,10.69 0 0 0 -5.14,-3.39s3.58,-1.37 6.69,3.53c0,0 5,0.59 5.59,1.16c0,0 -2.39,-5.26 -5.44,-7.56c0,0 4.62,0.94 6.73,8.05l4.85,1.92s-2.79,-7.13 -5.36,-9.37c0,0 4.56,1.68 6.54,10l4.45,2.55s-1.94,-6.32 -4.26,-9.44c0,0 3.9,2.48 5.51,10.23l2.77,2s-1.5,-4.59 -2,-5.87s-0.25,-1.53 -0.25,-1.53a16.35,16.35 0 0 1 3.47,8.25s5.44,4.61 5.75,4.31z" stroke="null"/>
  <ellipse id="svg_93" opacity="0.1" fill="#171718" ry="2.57" rx="22.99" cy="784.59" cx="204.95" stroke="null"/>
  <ellipse id="svg_94" opacity="0.1" fill="#171718" ry="2.57" rx="22.99" cy="742.910016" cx="102.240385" stroke="null"/>
  <ellipse id="svg_95" opacity="0.1" fill="#171718" ry="2.57" rx="22.99" cy="813.6" cx="319.83" stroke="null"/>
  <ellipse id="svg_96" opacity="0.1" fill="#171718" ry="2.57" rx="22.99" cy="750.41" cx="908.53" stroke="null"/>
  <ellipse id="svg_97" opacity="0.1" fill="#171718" ry="2.57" rx="22.99" cy="737.94" cx="805.22071" stroke="null"/>
  <ellipse id="svg_98" opacity="0.1" fill="#171718" ry="4.67" rx="27.19" cy="796.66" cx="593.46" stroke="null"/>
  <path id="svg_99" fill="#171718" d="m569.589708,703.719627s-37.86,19.56 -18.3,42.6c0,0 1.84,5 7.16,4.65c0,0 -1.06,-1.94 3,-3.49a19.51,19.51 0 0 0 4.09,-2.17a9.61,9.61 0 0 0 3.66,-4.89l0,0s7.74,-10.36 1.74,-29.53c0,0 0.78,-5.42 0.1,-6.3l-4.6,6.31s4.75,3.19 5.3,7.88c0,0 -5,-7.87 -6,-7c-0.22,0.18 -2.28,3.45 -2.28,3.45s8.24,5.59 8.85,12.85c0,0 -4.64,-10.17 -9.65,-11.62l-2.87,5.12s9,5.48 10,13.72c0,0 -5.23,-10.45 -10.57,-12.56l-2.11,5.41s8.68,5.52 9.48,12.38c0,0 -7.26,-11.47 -9.87,-11.11c0,0 -1.64,5.08 -1.42,6.65c0,0 6.13,4.1 6.24,8.13c0,0 -5.66,-7.15 -6.53,-6.68c0,0 -0.36,7.19 1.38,10.93c0,0 -3,-5.34 -2.51,-10.93a12,12 0 0 0 -3.63,5.84s-1.63,-3.95 3.74,-7.59c0,0 0.51,-5.59 1.13,-6.28c0,0 -5.81,2.84 -8.28,6.32c0,0 0.91,-5.19 8.79,-7.77l2,-5.48s-7.88,3.34 -10.31,6.28c0,0 1.75,-5.15 10.93,-7.62l2.72,-5s-7,2.36 -10.42,5c0,0 2.65,-4.43 11.26,-6.47l2.21,-3.15s-5.08,1.81 -6.5,2.46s-1.7,0.33 -1.7,0.33a18.39,18.39 0 0 1 9.11,-4.14s5.01,-6.19 4.66,-6.53z" stroke="null"/>
  <path id="svg_102" opacity="0.1" d="m694.11071,317.88s14.6,11.95 19,13s7.1,10.37 7.1,10.37" stroke="null"/>
  <path id="svg_124" opacity="0.1" d="m709.711095,341.680016s12.33,1.65 14.67,-1.68" stroke="null"/>
  <path id="svg_125" opacity="0.1" d="m705.711095,360.330016s23.16,-3 28.91,-7" stroke="null"/>
  <path id="svg_126" opacity="0.1" d="m635.041095,353.330016s13,7.33 22.67,7" stroke="null"/>
  <path id="svg_156" opacity="0.1" d="m690.711095,208.150016s34.83,-10.65 43.91,-9.15" stroke="null"/>
  <path id="svg_157" opacity="0.1" d="m651.751095,203.500016s-33.76,-8 -39.4,-5.73" stroke="null"/>
  <path id="svg_160" opacity="0.1" d="m612.351095,321.660016s-14.61,11.95 -19,13s-7.1,10.37 -7.1,10.37" stroke="null"/>
  <path id="svg_162" opacity="0.1" d="m709.57071,324.52s9.55,6.14 9.51,13.48" stroke="null"/>
  <path id="svg_166" fill="#171718" d="m886.419466,577.209649s5.93,7.75 -2.74,19.46s-15.81,21.59 -12.93,28.89c0,0 13.08,-21.74 23.72,-22.05s3.64,-13.23 -8.05,-26.3z" stroke="null"/>
  <path id="svg_167" opacity="0.1" d="m886.419466,577.209649a9.6,9.6 0 0 1 1.21,2.43c10.38,12.2 15.92,23.59 5.93,23.87c-9.3,0.27 -20.45,16.9 -23.12,21.09a9.78,9.78 0 0 0 0.31,1s13.08,-21.74 23.72,-22.05s3.64,-13.27 -8.05,-26.34z" stroke="null"/>
  <path id="svg_168" fill="#ffd037" d="m915.419611,697.090534c0,2.73 -0.31,4.94 -0.68,4.94s-0.69,-2.21 -0.69,-4.94s0.38,-1.44 0.76,-1.44s0.61,-1.29 0.61,1.44z" stroke="null"/>
  <path id="svg_169" fill="#ffd037" d="m919.209611,700.350534c-2.39,1.3 -4.48,2.09 -4.66,1.76s1.61,-1.66 4,-3s1.45,-0.36 1.63,0s1.43,-0.07 -0.97,1.24z" stroke="null"/>
  <path id="svg_170" fill="#171718" d="m855.079466,577.209649s-5.93,7.75 2.74,19.46s15.81,21.59 12.92,28.89c0,0 -13.07,-21.74 -23.72,-22.05s-3.6,-13.23 8.06,-26.3z" stroke="null"/>
  <path id="svg_171" opacity="0.1" d="m855.079466,577.209649a9.6,9.6 0 0 0 -1.21,2.43c-10.38,12.2 -15.92,23.59 -5.93,23.87c9.29,0.27 20.45,16.9 23.12,21.09a7.72,7.72 0 0 1 -0.32,1s-13.07,-21.74 -23.72,-22.05s-3.6,-13.27 8.06,-26.34z" stroke="null"/>
  <path id="svg_172" fill="#ffd037" d="m844.059466,587.089649c0,2.73 0.3,4.94 0.68,4.94s0.69,-2.21 0.69,-4.94s-0.39,-1.44 -0.76,-1.44s-0.61,-1.29 -0.61,1.44z" stroke="null"/>
  <path id="svg_173" fill="#ffd037" d="m840.279466,590.349649c2.39,1.3 4.48,2.09 4.66,1.76s-1.61,-1.66 -4,-3s-1.45,-0.36 -1.63,0s-1.43,-0.07 0.97,1.24z" stroke="null"/>
  <ellipse id="svg_174" opacity="0.1" fill="#171718" ry="9.51" rx="62" cy="675.369649" cx="870.749466" stroke="null"/>
  <path id="svg_175" fill="#65617d" d="m902.659466,615.109649l-0.3,2.42l-0.42,3.42l-0.17,1.43l-0.42,3.42l-0.18,1.43l-0.41,3.41l-4.75,38.9c-0.42,3.47 -6.09,6.18 -12.94,6.18l-24.65,0c-6.85,0 -12.51,-2.71 -12.94,-6.18l-4.75,-38.9l-0.42,-3.41l-0.17,-1.43l-0.42,-3.42l-0.18,-1.43l-0.41,-3.42l-0.3,-2.42c-0.23,-2 2.83,-3.62 6.71,-3.62l50.42,0c3.87,0 6.94,1.65 6.7,3.62z" stroke="null"/>
  <polygon id="svg_176" fill="#9d9cb5" points="902.3594131469727,617.5296630859375 901.9494400024414,620.9496459960938 839.5494155883789,620.9496459960938 839.1294326782227,617.5296630859375 902.3594131469727,617.5296630859375 " stroke="null"/>
  <polygon id="svg_177" fill="#9d9cb5" points="901.7694473266602,622.379638671875 901.3594131469727,625.7996215820312 840.1394424438477,625.7996215820312 839.7193984985352,622.379638671875 901.7694473266602,622.379638671875 " stroke="null"/>
  <polygon id="svg_178" fill="#9d9cb5" points="901.1794204711914,627.2296142578125 900.7594375610352,630.649658203125 840.7294082641602,630.649658203125 840.3194351196289,627.2296142578125 901.1794204711914,627.2296142578125 " stroke="null"/>
 </g>
</svg>